<svg xmlns="http://www.w3.org/2000/svg" width="350.104" height="119" viewBox="0 0 350.104 119">
  <g id="Group_40" data-name="Group 40" transform="translate(-262.705 -233.754)">
    <path id="Path_1" data-name="Path 1" d="M332.1,284.965a5.478,5.478,0,0,0,1.686-4.042,28.957,28.957,0,0,0-2.775-12.882,21.256,21.256,0,0,0-8.11-8.948,23.587,23.587,0,0,0-12.417-3.2,25.534,25.534,0,0,0-12.944,3.308,23.43,23.43,0,0,0-8.971,9.249,27.4,27.4,0,0,0-3.2,13.247,26.037,26.037,0,0,0,3.394,13.245,24.1,24.1,0,0,0,9.459,9.185,28.184,28.184,0,0,0,22.455,1.722,25.768,25.768,0,0,0,7.8-4.066,4.954,4.954,0,0,0,2.115-4.061,5.913,5.913,0,0,0-5.981-5.639,6.263,6.263,0,0,0-3.965,1.33,14.309,14.309,0,0,1-4.084,2.044,15.656,15.656,0,0,1-14.7-2.44,12.958,12.958,0,0,1-4.335-6.462h30.439A5.755,5.755,0,0,0,332.1,284.965Zm-34.44-8.993A12.428,12.428,0,0,1,310.485,267a10.788,10.788,0,0,1,7.931,2.919,12.528,12.528,0,0,1,3.369,6.055Z" transform="translate(74.369 19.442)" fill="#d9000d"/>
    <g id="Group_1" data-name="Group 1" transform="translate(411.53 275.336)">
      <path id="Path_2" data-name="Path 2" d="M341.88,267.343a13.04,13.04,0,0,1,5.094.928,11.928,11.928,0,0,1,4.039,2.933,6.2,6.2,0,0,0,4.74,2.17,5.179,5.179,0,0,0,3.02-.923,5.566,5.566,0,0,0,2.7-4.712,5.079,5.079,0,0,0-1.315-3.45,23.281,23.281,0,0,0-18.284-8.394,25.787,25.787,0,0,0-12.982,3.3,23.337,23.337,0,0,0-9.019,9.253,27.414,27.414,0,0,0-3.2,13.247,26.5,26.5,0,0,0,3.291,13.092,24.049,24.049,0,0,0,9.185,9.276,26.154,26.154,0,0,0,13.153,3.344,23.794,23.794,0,0,0,16.813-6.312,5.075,5.075,0,0,0,1.576-3.632,5.87,5.87,0,0,0-2.377-4.578c-2.215-1.661-4.967-1.548-7.718.49a12.425,12.425,0,0,1-8.295,2.589,13.61,13.61,0,0,1-7.03-1.809,12.376,12.376,0,0,1-4.739-5.005,15.767,15.767,0,0,1-1.723-7.453c0-4.441,1.189-7.876,3.639-10.5A12.181,12.181,0,0,1,341.88,267.343Z" transform="translate(-316.683 -255.894)" fill="#fff"/>
      <path id="Path_3" data-name="Path 3" d="M386.725,259.194a26.2,26.2,0,0,0-13.1-3.3,26.6,26.6,0,0,0-13.229,3.3,23.517,23.517,0,0,0-9.15,9.2,28.685,28.685,0,0,0,0,26.522,23.529,23.529,0,0,0,9.152,9.2,28.116,28.116,0,0,0,26.42,0,23.62,23.62,0,0,0,9.1-9.2,28.523,28.523,0,0,0-.048-26.53A23.942,23.942,0,0,0,386.725,259.194Zm-13.1,36.772a13.458,13.458,0,0,1-6.944-1.809,12.661,12.661,0,0,1-4.788-5.022,15.432,15.432,0,0,1-1.76-7.436,15.693,15.693,0,0,1,1.763-7.491,12.764,12.764,0,0,1,4.783-5.055,13.234,13.234,0,0,1,6.945-1.81,13.392,13.392,0,0,1,6.944,1.81,12.338,12.338,0,0,1,4.735,5.04,16.036,16.036,0,0,1,1.727,7.506,15.786,15.786,0,0,1-1.723,7.453,12.394,12.394,0,0,1-4.737,5.005A13.46,13.46,0,0,1,373.622,295.966Z" transform="translate(-296.206 -255.894)" fill="#fff"/>
      <path id="Path_4" data-name="Path 4" d="M424.7,256.832a6.365,6.365,0,0,0-5.83.175,5.567,5.567,0,0,0-2.274,2.43l-13.154,28.677L390.1,259.376a5.617,5.617,0,0,0-2.175-2.35,5.816,5.816,0,0,0-5.556-.194,5.575,5.575,0,0,0-3.434,5.182,5.244,5.244,0,0,0,.523,2.345l18.285,38.552a7.337,7.337,0,0,0,2.336,2.9,6.022,6.022,0,0,0,3.452.966,5.944,5.944,0,0,0,5.63-3.9l18.254-38.486a5.526,5.526,0,0,0,.624-2.461,5.414,5.414,0,0,0-.913-3.047A5.8,5.8,0,0,0,424.7,256.832Z" transform="translate(-275.967 -255.688)" fill="#fff"/>
      <path id="Path_5" data-name="Path 5" d="M455.832,284.965a5.472,5.472,0,0,0,1.685-4.042,28.936,28.936,0,0,0-2.775-12.882,21.246,21.246,0,0,0-8.11-8.948,23.582,23.582,0,0,0-12.417-3.2,25.543,25.543,0,0,0-12.944,3.308,23.431,23.431,0,0,0-8.971,9.249,27.414,27.414,0,0,0-3.2,13.247,26.036,26.036,0,0,0,3.392,13.245,24.1,24.1,0,0,0,9.459,9.185,28.184,28.184,0,0,0,22.455,1.722,25.768,25.768,0,0,0,7.8-4.066,4.95,4.95,0,0,0,2.116-4.061,5.911,5.911,0,0,0-5.981-5.639,6.255,6.255,0,0,0-3.963,1.33,14.308,14.308,0,0,1-4.084,2.044,15.66,15.66,0,0,1-14.7-2.44,12.979,12.979,0,0,1-4.335-6.462h30.439A5.75,5.75,0,0,0,455.832,284.965Zm-34.44-8.993A12.432,12.432,0,0,1,434.215,267a10.788,10.788,0,0,1,7.931,2.919,12.53,12.53,0,0,1,3.369,6.055Z" transform="translate(-256.238 -255.894)" fill="#fff"/>
    </g>
    <g id="Group_2" data-name="Group 2" transform="translate(263.598 246.036)">
      <path id="Path_6" data-name="Path 6" d="M254.609,344.9a7,7,0,0,1-6.439-4.248l-20.356-47.488a7.009,7.009,0,0,1,12.883-5.523l13.234,30.872,15.536-44.657a7.009,7.009,0,0,1,12.949-.706l11.447,24.058,28.968-55.269a7.009,7.009,0,0,1,12.417,6.505l-35.48,67.694a7.18,7.18,0,0,1-6.343,3.756,7.008,7.008,0,0,1-6.193-4l-10.138-21.3-15.865,45.6a7.009,7.009,0,0,1-6.373,4.7C254.775,344.9,254.692,344.9,254.609,344.9Z" transform="translate(-227.245 -238.18)" fill="#d9000d"/>
    </g>
    <g id="Group_6" data-name="Group 6" transform="translate(262.705 233.754)">
      <g id="Group_3" data-name="Group 3" transform="translate(31.891 30.654)">
        <path id="Path_7" data-name="Path 7" d="M263.646,249.287a20.1,20.1,0,0,0-5,.635,19.819,19.819,0,0,0-12.212,9.176,3.208,3.208,0,0,0,1.128,4.4,3.3,3.3,0,0,0,4.4-1.13A13.532,13.532,0,0,1,270.5,257.6a3.238,3.238,0,0,0,2.431.342,3.206,3.206,0,0,0,.834-5.868A19.857,19.857,0,0,0,263.646,249.287Z" transform="translate(-245.986 -249.287)" fill="#fff"/>
      </g>
      <g id="Group_4" data-name="Group 4" transform="translate(14.196 15.573)">
        <path id="Path_8" data-name="Path 8" d="M273.152,240.169a43.591,43.591,0,0,0-10.826,1.378A42.873,42.873,0,0,0,235.9,261.393a4.409,4.409,0,0,0,1.56,6.044,4.531,4.531,0,0,0,6.04-1.551,34.338,34.338,0,0,1,47.042-12.093,4.418,4.418,0,0,0,2.246.617h0a4.344,4.344,0,0,0,1.093-.139,4.409,4.409,0,0,0,1.15-8.073A42.977,42.977,0,0,0,273.152,240.169Z" transform="translate(-235.288 -240.169)" fill="#fff"/>
      </g>
      <g id="Group_5" data-name="Group 5">
        <path id="Path_9" data-name="Path 9" d="M279.156,230.754a60.491,60.491,0,0,0-15.065,1.919,59.684,59.684,0,0,0-36.772,27.617,4.412,4.412,0,0,0,4.9,6.52,4.354,4.354,0,0,0,2.7-2.026,51.247,51.247,0,0,1,70.206-18.039,4.543,4.543,0,0,0,6.044-1.555,4.429,4.429,0,0,0-1.55-6.05A59.906,59.906,0,0,0,279.156,230.754Z" transform="translate(-226.705 -230.754)" fill="#fff"/>
      </g>
    </g>
    <g id="Group_7" data-name="Group 7" transform="translate(307.474 339.024)">
      <path id="Path_10" data-name="Path 10" d="M253.772,294.592h2.448l2.362,9.052h.035l2.822-9.052h2.2l2.769,9.052h.036l2.468-9.052h2.271l-3.655,12.567H265.4l-2.911-9.565h-.035l-2.913,9.565h-2.058Z" transform="translate(-253.772 -294.273)" fill="#8c8b8b"/>
      <path id="Path_11" data-name="Path 11" d="M271.653,296.872h5.827v1.417h-4.261v2.162h4.037v1.414h-4.037v2.387h4.486v1.416h-6.052Z" transform="translate(-242.078 -292.782)" fill="#8c8b8b"/>
      <path id="Path_12" data-name="Path 12" d="M300.06,297.664a3.722,3.722,0,0,0-1.341-.991,3.549,3.549,0,0,0-1.305-.25,4.308,4.308,0,0,0-1.765.347,4.01,4.01,0,0,0-1.358.956,4.391,4.391,0,0,0-.88,1.431,4.9,4.9,0,0,0-.309,1.757,5.4,5.4,0,0,0,.309,1.864,4.42,4.42,0,0,0,.88,1.474,4.087,4.087,0,0,0,1.358.976,4.285,4.285,0,0,0,1.765.356,3.266,3.266,0,0,0,1.484-.366,4.056,4.056,0,0,0,1.34-1.163l1.846,1.315a5.031,5.031,0,0,1-2.076,1.7,6.477,6.477,0,0,1-2.612.533,7.324,7.324,0,0,1-2.67-.468,6.013,6.013,0,0,1-3.47-3.4,6.939,6.939,0,0,1-.5-2.678,7.243,7.243,0,0,1,.5-2.742,6.085,6.085,0,0,1,1.376-2.1,5.982,5.982,0,0,1,2.094-1.341,7.36,7.36,0,0,1,2.67-.471,6.175,6.175,0,0,1,2.372.452,5.564,5.564,0,0,1,2.033,1.538Z" transform="translate(-229.581 -294.399)" fill="#8c8b8b"/>
      <path id="Path_13" data-name="Path 13" d="M304.739,301.395a5.094,5.094,0,0,1,.349-1.919,4.315,4.315,0,0,1,.963-1.474,4.247,4.247,0,0,1,1.467-.936,5.13,5.13,0,0,1,1.869-.329,5.21,5.21,0,0,1,1.889.3,4.165,4.165,0,0,1,1.479.928,4.278,4.278,0,0,1,.969,1.467,5.028,5.028,0,0,1,.347,1.912,4.9,4.9,0,0,1-.347,1.877,4.385,4.385,0,0,1-.969,1.454,4.514,4.514,0,0,1-1.479.949,5.365,5.365,0,0,1-3.758.025,4.194,4.194,0,0,1-2.43-2.38A4.89,4.89,0,0,1,304.739,301.395Zm1.641-.1a3.8,3.8,0,0,0,.217,1.305,3.111,3.111,0,0,0,.615,1.034,2.886,2.886,0,0,0,.953.681,3,3,0,0,0,1.236.248,3.062,3.062,0,0,0,1.242-.248,2.889,2.889,0,0,0,.958-.681,3.081,3.081,0,0,0,.614-1.034,3.764,3.764,0,0,0,.218-1.305,3.409,3.409,0,0,0-.218-1.227,3.053,3.053,0,0,0-.614-1,2.839,2.839,0,0,0-.958-.672,3.087,3.087,0,0,0-1.242-.243,3.027,3.027,0,0,0-1.236.243,2.835,2.835,0,0,0-.953.672,3.084,3.084,0,0,0-.615,1A3.444,3.444,0,0,0,306.38,301.3Z" transform="translate(-220.439 -292.87)" fill="#8c8b8b"/>
      <path id="Path_14" data-name="Path 14" d="M316.016,296.872h2.074l4.262,6.535h.023v-6.535h1.566v8.8h-1.988l-4.348-6.745h-.025v6.745h-1.565Z" transform="translate(-213.063 -292.782)" fill="#8c8b8b"/>
      <path id="Path_15" data-name="Path 15" d="M328.881,298.289h-2.694v-1.417h6.958v1.417h-2.7v7.379h-1.566Z" transform="translate(-206.411 -292.782)" fill="#8c8b8b"/>
      <path id="Path_16" data-name="Path 16" d="M335.772,296.872h3.055a6.044,6.044,0,0,1,1.224.119,3.115,3.115,0,0,1,1.05.4,2.129,2.129,0,0,1,.734.769,2.5,2.5,0,0,1,.273,1.231,2.449,2.449,0,0,1-.529,1.6,2.259,2.259,0,0,1-1.51.781l2.336,3.89h-1.887l-2.038-3.728h-1.143v3.728h-1.565Zm2.782,3.728a6.472,6.472,0,0,0,.67-.033,1.951,1.951,0,0,0,.615-.149,1.036,1.036,0,0,0,.455-.359,1.158,1.158,0,0,0,.172-.678,1.086,1.086,0,0,0-.16-.62,1.012,1.012,0,0,0-.422-.356,1.986,1.986,0,0,0-.579-.154,4.937,4.937,0,0,0-.615-.036h-1.353V300.6Z" transform="translate(-200.143 -292.782)" fill="#8c8b8b"/>
      <path id="Path_17" data-name="Path 17" d="M344.95,301.395a5.094,5.094,0,0,1,.349-1.919,4.314,4.314,0,0,1,.963-1.474,4.246,4.246,0,0,1,1.467-.936,5.13,5.13,0,0,1,1.869-.329,5.211,5.211,0,0,1,1.889.3,4.165,4.165,0,0,1,1.479.928,4.279,4.279,0,0,1,.969,1.467,5.029,5.029,0,0,1,.347,1.912,4.9,4.9,0,0,1-.347,1.877,4.386,4.386,0,0,1-.969,1.454,4.514,4.514,0,0,1-1.479.949,5.365,5.365,0,0,1-3.758.025,4.195,4.195,0,0,1-2.43-2.38A4.891,4.891,0,0,1,344.95,301.395Zm1.641-.1a3.8,3.8,0,0,0,.217,1.305,3.111,3.111,0,0,0,.615,1.034,2.869,2.869,0,0,0,.953.681,3,3,0,0,0,1.236.248,3.063,3.063,0,0,0,1.242-.248,2.889,2.889,0,0,0,.958-.681,3.08,3.08,0,0,0,.614-1.034,3.764,3.764,0,0,0,.218-1.305,3.409,3.409,0,0,0-.218-1.227,3.052,3.052,0,0,0-.614-1,2.839,2.839,0,0,0-.958-.672,3.088,3.088,0,0,0-1.242-.243,3.027,3.027,0,0,0-1.236.243,2.819,2.819,0,0,0-.953.672,3.084,3.084,0,0,0-.615,1A3.444,3.444,0,0,0,346.591,301.3Z" transform="translate(-194.14 -292.87)" fill="#8c8b8b"/>
      <path id="Path_18" data-name="Path 18" d="M356.227,296.872h1.565v7.38h3.74v1.416h-5.3Z" transform="translate(-186.765 -292.782)" fill="#8c8b8b"/>
      <path id="Path_19" data-name="Path 19" d="M374.17,294.592h2.574l3.425,9.5,3.533-9.5h2.415l-5.078,12.567H379.1Z" transform="translate(-175.03 -294.273)" fill="#8c8b8b"/>
      <path id="Path_20" data-name="Path 20" d="M388.714,296.872h5.826v1.417h-4.261v2.162h4.039v1.414h-4.039v2.387h4.486v1.416h-6.05Z" transform="translate(-165.518 -292.782)" fill="#8c8b8b"/>
      <path id="Path_21" data-name="Path 21" d="M398.036,296.872H399.6v3.5h4.114v-3.5h1.565v8.8h-1.565v-3.877H399.6v3.877h-1.565Z" transform="translate(-159.421 -292.782)" fill="#8c8b8b"/>
      <path id="Path_22" data-name="Path 22" d="M408.314,296.872h1.565v8.8h-1.565Z" transform="translate(-152.699 -292.782)" fill="#8c8b8b"/>
      <path id="Path_23" data-name="Path 23" d="M421.382,299.025a2.612,2.612,0,0,0-.939-.7,2.492,2.492,0,0,0-.911-.175,3.04,3.04,0,0,0-1.237.243,2.828,2.828,0,0,0-.951.671,3.084,3.084,0,0,0-.615,1,3.444,3.444,0,0,0-.217,1.227,3.8,3.8,0,0,0,.217,1.305,3.111,3.111,0,0,0,.615,1.034,2.88,2.88,0,0,0,.951.681,3.016,3.016,0,0,0,1.237.248,2.259,2.259,0,0,0,1.035-.255,2.786,2.786,0,0,0,.939-.814l1.292.92a3.514,3.514,0,0,1-1.454,1.193,4.507,4.507,0,0,1-1.826.372,5.2,5.2,0,0,1-1.869-.327,4.194,4.194,0,0,1-2.43-2.38,4.861,4.861,0,0,1-.349-1.877,5.063,5.063,0,0,1,.349-1.919,4.317,4.317,0,0,1,.963-1.474,4.247,4.247,0,0,1,1.467-.936,5.13,5.13,0,0,1,1.869-.329,4.308,4.308,0,0,1,1.659.316,3.841,3.841,0,0,1,1.422,1.077Z" transform="translate(-148.411 -292.87)" fill="#8c8b8b"/>
      <path id="Path_24" data-name="Path 24" d="M425.035,296.872H426.6v7.38h3.74v1.416h-5.3Z" transform="translate(-141.763 -292.782)" fill="#8c8b8b"/>
      <path id="Path_25" data-name="Path 25" d="M433.666,296.872h5.827v1.417h-4.262v2.162h4.039v1.414h-4.039v2.387h4.486v1.416h-6.05Z" transform="translate(-136.118 -292.782)" fill="#8c8b8b"/>
    </g>
  </g>
</svg>
